<?xml version="1.0" encoding="UTF-8" standalone="no"?>
<!-- Created with Inkscape (http://www.inkscape.org/) -->

<svg
   width="263.30988"
   height="33.354881"
   viewBox="0 0 263.30987 33.354881"
   version="1.1"
   id="svg1"
   xml:space="preserve"
   sodipodi:docname="sword.svg"
   inkscape:version="1.3.2 (091e20e, 2023-11-25, custom)"
   inkscape:export-filename="aboutMe.svg"
   inkscape:export-xdpi="96"
   inkscape:export-ydpi="96"
   xmlns:inkscape="http://www.inkscape.org/namespaces/inkscape"
   xmlns:sodipodi="http://sodipodi.sourceforge.net/DTD/sodipodi-0.dtd"
   xmlns="http://www.w3.org/2000/svg"
   xmlns:svg="http://www.w3.org/2000/svg"><sodipodi:namedview
     id="namedview1"
     pagecolor="#505050"
     bordercolor="#ffffff"
     borderopacity="1"
     inkscape:showpageshadow="0"
     inkscape:pageopacity="0"
     inkscape:pagecheckerboard="1"
     inkscape:deskcolor="#505050"
     inkscape:document-units="px"
     inkscape:zoom="0.70710678"
     inkscape:cx="395.27269"
     inkscape:cy="461.74073"
     inkscape:window-width="1920"
     inkscape:window-height="1051"
     inkscape:window-x="-9"
     inkscape:window-y="-9"
     inkscape:window-maximized="1"
     inkscape:current-layer="layer4"
     showguides="true"><sodipodi:guide
       position="82.365613,-340.93888"
       orientation="0,-1"
       id="guide16"
       inkscape:locked="false" /><sodipodi:guide
       position="625.3656,-590.43888"
       orientation="0,-1"
       id="guide17"
       inkscape:locked="false" /><sodipodi:guide
       position="2544.7783,-1044.0255"
       orientation="1,0"
       id="guide47"
       inkscape:locked="false" /><sodipodi:guide
       position="-20.384384,49.311123"
       orientation="0,-1"
       id="guide71"
       inkscape:locked="false" /><sodipodi:guide
       position="123.90999,17.960541"
       orientation="0,-1"
       id="guide72"
       inkscape:locked="false" /></sodipodi:namedview><defs
     id="defs1"><inkscape:path-effect
       effect="powerclip"
       id="path-effect102"
       is_visible="true"
       lpeversion="1"
       inverse="true"
       flatten="false"
       hide_clip="false"
       message="Utilice la regla de relleno parimpar en el diálogo &lt;b&gt;Relleno y borde&lt;/b&gt; si el resultado no está aplanada después de convertir el recorte en trayectos." /><inkscape:path-effect
       effect="powerclip"
       id="path-effect98"
       is_visible="true"
       lpeversion="1"
       inverse="true"
       flatten="false"
       hide_clip="false"
       message="Utilice la regla de relleno parimpar en el diálogo &lt;b&gt;Relleno y borde&lt;/b&gt; si el resultado no está aplanada después de convertir el recorte en trayectos." /><inkscape:path-effect
       effect="powerclip"
       id="path-effect95"
       is_visible="true"
       lpeversion="1"
       inverse="true"
       flatten="false"
       hide_clip="false"
       message="Utilice la regla de relleno parimpar en el diálogo &lt;b&gt;Relleno y borde&lt;/b&gt; si el resultado no está aplanada después de convertir el recorte en trayectos." /><inkscape:path-effect
       effect="powerclip"
       id="path-effect90"
       is_visible="true"
       lpeversion="1"
       inverse="true"
       flatten="false"
       hide_clip="false"
       message="Utilice la regla de relleno parimpar en el diálogo &lt;b&gt;Relleno y borde&lt;/b&gt; si el resultado no está aplanada después de convertir el recorte en trayectos." /><inkscape:path-effect
       effect="powerclip"
       id="path-effect87"
       is_visible="true"
       lpeversion="1"
       inverse="true"
       flatten="false"
       hide_clip="false"
       message="Utilice la regla de relleno parimpar en el diálogo &lt;b&gt;Relleno y borde&lt;/b&gt; si el resultado no está aplanada después de convertir el recorte en trayectos." /><inkscape:path-effect
       effect="powerclip"
       id="path-effect85"
       is_visible="true"
       lpeversion="1"
       inverse="true"
       flatten="false"
       hide_clip="false"
       message="Utilice la regla de relleno parimpar en el diálogo &lt;b&gt;Relleno y borde&lt;/b&gt; si el resultado no está aplanada después de convertir el recorte en trayectos." /><inkscape:path-effect
       effect="powerclip"
       id="path-effect83"
       is_visible="true"
       lpeversion="1"
       inverse="true"
       flatten="false"
       hide_clip="false"
       message="Utilice la regla de relleno parimpar en el diálogo &lt;b&gt;Relleno y borde&lt;/b&gt; si el resultado no está aplanada después de convertir el recorte en trayectos." /><inkscape:path-effect
       effect="powerclip"
       id="path-effect75"
       is_visible="true"
       lpeversion="1"
       inverse="true"
       flatten="false"
       hide_clip="false"
       message="Utilice la regla de relleno parimpar en el diálogo &lt;b&gt;Relleno y borde&lt;/b&gt; si el resultado no está aplanada después de convertir el recorte en trayectos." /><inkscape:path-effect
       effect="powerclip"
       id="path-effect50"
       is_visible="true"
       lpeversion="1"
       inverse="true"
       flatten="false"
       hide_clip="false"
       message="Utilice la regla de relleno parimpar en el diálogo &lt;b&gt;Relleno y borde&lt;/b&gt; si el resultado no está aplanada después de convertir el recorte en trayectos." /><inkscape:path-effect
       effect="powerclip"
       id="path-effect46"
       is_visible="true"
       lpeversion="1"
       inverse="true"
       flatten="false"
       hide_clip="false"
       message="Utilice la regla de relleno parimpar en el diálogo &lt;b&gt;Relleno y borde&lt;/b&gt; si el resultado no está aplanada después de convertir el recorte en trayectos." /><inkscape:path-effect
       effect="powerclip"
       id="path-effect45"
       is_visible="true"
       lpeversion="1"
       inverse="true"
       flatten="false"
       hide_clip="false"
       message="Utilice la regla de relleno parimpar en el diálogo &lt;b&gt;Relleno y borde&lt;/b&gt; si el resultado no está aplanada después de convertir el recorte en trayectos." /><inkscape:path-effect
       effect="powerclip"
       id="path-effect36"
       is_visible="true"
       lpeversion="1"
       inverse="true"
       flatten="false"
       hide_clip="false"
       message="Utilice la regla de relleno parimpar en el diálogo &lt;b&gt;Relleno y borde&lt;/b&gt; si el resultado no está aplanada después de convertir el recorte en trayectos." /><clipPath
       clipPathUnits="userSpaceOnUse"
       id="clipPath35"><path
         style="display:none;fill:#000000;fill-opacity:1;stroke:#000000;stroke-width:3.56018;stroke-opacity:1"
         d="m 389.22646,362.67337 h -45.94309 l -12.24567,12.24567 0.17678,17.89598 9.82911,11.06652 47.14163,-0.17678 10.76427,-10.69113 0.4571,-18.37223 z"
         id="path36"
         sodipodi:nodetypes="ccccccccc" /><path
         id="lpe_path-effect36"
         style="display:block;fill:#000000;fill-opacity:1;stroke:#000000;stroke-width:3.56018;stroke-opacity:1"
         class="powerclip"
         d="M 221.56605,279.727 H 502.48913 V 542.95537 H 221.56605 Z m 167.66041,82.94637 h -45.94309 l -12.24567,12.24567 0.17678,17.89598 9.82911,11.06652 47.14163,-0.17678 10.76427,-10.69113 0.4571,-18.37223 z" /></clipPath><clipPath
       clipPathUnits="userSpaceOnUse"
       id="clipPath44"><g
         id="g45"
         style="display:none"><path
           style="display:block;fill:#000000;fill-opacity:1;stroke:#000000;stroke-width:3.56018;stroke-opacity:1"
           d="m 515.04774,457.81046 h -45.94309 l -12.24567,12.24567 0.17678,17.89598 9.82911,11.06652 47.14163,-0.17678 10.76427,-10.69113 0.4571,-18.37223 z"
           id="path44"
           sodipodi:nodetypes="ccccccccc" /><path
           style="display:block;fill:#000000;fill-opacity:1;stroke:#000000;stroke-width:3.56018;stroke-opacity:1"
           d="m 514.04774,549.81046 h -45.94309 l -12.24567,12.24567 0.17678,17.89598 9.82911,11.06652 47.14163,-0.17678 10.76427,-10.69113 0.4571,-18.37223 z"
           id="path45"
           sodipodi:nodetypes="ccccccccc" /></g><path
         id="lpe_path-effect45"
         class="powerclip"
         d="M 376.47966,392.75896 H 627.38108 V 655.76309 H 376.47966 Z m 138.56808,65.0515 h -45.94309 l -12.24567,12.24567 0.17678,17.89598 9.82911,11.06652 47.14163,-0.17678 10.76427,-10.69113 0.4571,-18.37223 z m -1,92 h -45.94309 l -12.24567,12.24567 0.17678,17.89598 9.82911,11.06652 47.14163,-0.17678 10.76427,-10.69113 0.4571,-18.37223 z" /></clipPath><clipPath
       clipPathUnits="userSpaceOnUse"
       id="clipPath46"><path
         style="display:none;fill:#000000;fill-opacity:1;stroke:#000000;stroke-width:5.43456;stroke-opacity:1"
         d="m 806.30119,473.59111 h -44.67901 l -14.65874,12.84163 -0.82809,72.88023 13.30868,13.01629 47.34457,-0.67358 10.92521,-15.21517 -0.0126,-69.67302 z"
         id="path46"
         sodipodi:nodetypes="ccccccccc" /><path
         id="lpe_path-effect46"
         style="display:block;fill:#000000;fill-opacity:1;stroke:#000000;stroke-width:5.43456;stroke-opacity:1"
         class="powerclip"
         d="M 655.39661,394.5679 H 903.34123 V 654.1836 H 655.39661 Z m 150.90458,79.02321 h -44.67901 l -14.65874,12.84163 -0.82809,72.88023 13.30868,13.01629 47.34457,-0.67358 10.92521,-15.21517 -0.0126,-69.67302 z" /></clipPath><clipPath
       clipPathUnits="userSpaceOnUse"
       id="clipPath49"><path
         style="display:none;fill:#000000;fill-opacity:1;stroke:#000000;stroke-opacity:0.0345679"
         d="m 34.794115,19.883912 v 4.087961 l 0.640816,0.640816 h 2.154466 l 0.607669,-0.60767 V 23.16533 l 0.278275,-0.481986 h 1.301667 l 0.321649,-0.557112 V 19.762378 L 39.661619,19.32534 h -4.491853 z"
         id="path50" /><path
         id="lpe_path-effect50"
         style="fill:#000000;fill-opacity:1;stroke:#000000;stroke-opacity:0.0345679"
         class="powerclip"
         d="M 24.750913,11.323543 H 50.474121 V 38.082155 H 24.750913 Z m 10.043202,8.560369 v 4.087961 l 0.640816,0.640816 h 2.154466 l 0.607669,-0.60767 V 23.16533 l 0.278275,-0.481986 h 1.301667 l 0.321649,-0.557112 V 19.762378 L 39.661619,19.32534 h -4.491853 z" /></clipPath><clipPath
       clipPathUnits="userSpaceOnUse"
       id="clipPath74"><path
         style="display:none;fill:#000000;fill-opacity:1;stroke:#000000;stroke-opacity:0.0345679"
         d="m 36.857941,23.047262 v 3.690213 l 0.883883,0.883884 h 3.49134 l 0.98332,-0.98332 V 23.13565 l -0.834165,-0.834165 h -3.839368 z"
         id="path75" /><path
         id="lpe_path-effect75"
         style="fill:#000000;fill-opacity:1;stroke:#000000;stroke-opacity:0.0345679"
         class="powerclip"
         d="M 27.071107,14.446462 H 52.285719 V 40.538144 H 27.071107 Z m 9.786834,8.6008 v 3.690213 l 0.883883,0.883884 h 3.49134 l 0.98332,-0.98332 V 23.13565 l -0.834165,-0.834165 h -3.839368 z" /></clipPath><clipPath
       clipPathUnits="userSpaceOnUse"
       id="clipath_lpe_path-effect83"><path
         style="display:none;fill:#000000;fill-opacity:1;stroke:#000000;stroke-width:5.43456;stroke-opacity:1"
         d="m 806.30119,473.59111 h -44.67901 l -14.65874,12.84163 -0.82809,72.88023 13.30868,13.01629 47.34457,-0.67358 10.92521,-15.21517 -0.0126,-69.67302 z"
         id="path83"
         sodipodi:nodetypes="ccccccccc" /><path
         id="lpe_path-effect83"
         style="display:block;fill:#000000;fill-opacity:1;stroke:#000000;stroke-width:5.43456;stroke-opacity:1"
         class="powerclip"
         d="M 655.39661,394.5679 H 903.34123 V 654.1836 H 655.39661 Z m 150.90458,79.02321 h -44.67901 l -14.65874,12.84163 -0.82809,72.88023 13.30868,13.01629 47.34457,-0.67358 10.92521,-15.21517 -0.0126,-69.67302 z" /></clipPath><clipPath
       clipPathUnits="userSpaceOnUse"
       id="clipath_lpe_path-effect85"><path
         style="display:none;fill:#000000;fill-opacity:1;stroke:#000000;stroke-opacity:0.0345679"
         d="m 34.794115,19.883912 v 4.087961 l 0.640816,0.640816 h 2.154466 l 0.607669,-0.60767 V 23.16533 l 0.278275,-0.481986 h 1.301667 l 0.321649,-0.557112 V 19.762378 L 39.661619,19.32534 h -4.491853 z"
         id="path85" /><path
         id="lpe_path-effect85"
         style="fill:#000000;fill-opacity:1;stroke:#000000;stroke-opacity:0.0345679"
         class="powerclip"
         d="M 24.750913,11.323543 H 50.474121 V 38.082155 H 24.750913 Z m 10.043202,8.560369 v 4.087961 l 0.640816,0.640816 h 2.154466 l 0.607669,-0.60767 V 23.16533 l 0.278275,-0.481986 h 1.301667 l 0.321649,-0.557112 V 19.762378 L 39.661619,19.32534 h -4.491853 z" /></clipPath><clipPath
       clipPathUnits="userSpaceOnUse"
       id="clipath_lpe_path-effect87"><path
         style="display:none;fill:#000000;fill-opacity:1;stroke:#000000;stroke-width:5.43456;stroke-opacity:1"
         d="m 806.30119,473.59111 h -44.67901 l -14.65874,12.84163 -0.82809,72.88023 13.30868,13.01629 47.34457,-0.67358 10.92521,-15.21517 -0.0126,-69.67302 z"
         id="path87"
         sodipodi:nodetypes="ccccccccc" /><path
         id="lpe_path-effect87"
         style="display:block;fill:#000000;fill-opacity:1;stroke:#000000;stroke-width:5.43456;stroke-opacity:1"
         class="powerclip"
         d="M 655.39661,394.5679 H 903.34123 V 654.1836 H 655.39661 Z m 150.90458,79.02321 h -44.67901 l -14.65874,12.84163 -0.82809,72.88023 13.30868,13.01629 47.34457,-0.67358 10.92521,-15.21517 -0.0126,-69.67302 z" /></clipPath><clipPath
       clipPathUnits="userSpaceOnUse"
       id="clipath_lpe_path-effect90"><path
         style="display:none;fill:#000000;fill-opacity:1;stroke:#000000;stroke-width:5.43456;stroke-opacity:1"
         d="m 806.30119,473.59111 h -44.67901 l -14.65874,12.84163 -0.82809,72.88023 13.30868,13.01629 47.34457,-0.67358 10.92521,-15.21517 -0.0126,-69.67302 z"
         id="path90"
         sodipodi:nodetypes="ccccccccc" /><path
         id="lpe_path-effect90"
         style="display:block;fill:#000000;fill-opacity:1;stroke:#000000;stroke-width:5.43456;stroke-opacity:1"
         class="powerclip"
         d="M 655.39661,394.5679 H 903.34123 V 654.1836 H 655.39661 Z m 150.90458,79.02321 h -44.67901 l -14.65874,12.84163 -0.82809,72.88023 13.30868,13.01629 47.34457,-0.67358 10.92521,-15.21517 -0.0126,-69.67302 z" /></clipPath><clipPath
       clipPathUnits="userSpaceOnUse"
       id="clipath_lpe_path-effect95"><path
         style="display:none;fill:#000000;fill-opacity:1;stroke:#000000;stroke-width:5.43456;stroke-opacity:1"
         d="m 806.30119,473.59111 h -44.67901 l -14.65874,12.84163 -0.82809,72.88023 13.30868,13.01629 47.34457,-0.67358 10.92521,-15.21517 -0.0126,-69.67302 z"
         id="path95"
         sodipodi:nodetypes="ccccccccc" /><path
         id="lpe_path-effect95"
         style="display:block;fill:#000000;fill-opacity:1;stroke:#000000;stroke-width:5.43456;stroke-opacity:1"
         class="powerclip"
         d="M 655.39661,394.5679 H 903.34123 V 654.1836 H 655.39661 Z m 150.90458,79.02321 h -44.67901 l -14.65874,12.84163 -0.82809,72.88023 13.30868,13.01629 47.34457,-0.67358 10.92521,-15.21517 -0.0126,-69.67302 z" /></clipPath><clipPath
       clipPathUnits="userSpaceOnUse"
       id="clipath_lpe_path-effect98"><path
         style="display:none;fill:#000000;fill-opacity:1;stroke:#000000;stroke-width:3.56018;stroke-opacity:1"
         d="m 389.22646,362.67337 h -45.94309 l -12.24567,12.24567 0.17678,17.89598 9.82911,11.06652 47.14163,-0.17678 10.76427,-10.69113 0.4571,-18.37223 z"
         id="path98"
         sodipodi:nodetypes="ccccccccc" /><path
         id="lpe_path-effect98"
         style="display:block;fill:#000000;fill-opacity:1;stroke:#000000;stroke-width:3.56018;stroke-opacity:1"
         class="powerclip"
         d="M 221.56605,279.727 H 502.48913 V 542.95537 H 221.56605 Z m 167.66041,82.94637 h -45.94309 l -12.24567,12.24567 0.17678,17.89598 9.82911,11.06652 47.14163,-0.17678 10.76427,-10.69113 0.4571,-18.37223 z" /></clipPath><clipPath
       clipPathUnits="userSpaceOnUse"
       id="clipath_lpe_path-effect102"><path
         style="display:none;fill:#000000;fill-opacity:1;stroke:#000000;stroke-width:5.43456;stroke-opacity:1"
         d="m 806.30119,473.59111 h -44.67901 l -14.65874,12.84163 -0.82809,72.88023 13.30868,13.01629 47.34457,-0.67358 10.92521,-15.21517 -0.0126,-69.67302 z"
         id="path102"
         sodipodi:nodetypes="ccccccccc" /><path
         id="lpe_path-effect102"
         style="display:block;fill:#000000;fill-opacity:1;stroke:#000000;stroke-width:5.43456;stroke-opacity:1"
         class="powerclip"
         d="M 655.39661,394.5679 H 903.34123 V 654.1836 H 655.39661 Z m 150.90458,79.02321 h -44.67901 l -14.65874,12.84163 -0.82809,72.88023 13.30868,13.01629 47.34457,-0.67358 10.92521,-15.21517 -0.0126,-69.67302 z" /></clipPath></defs><g
     inkscape:groupmode="layer"
     id="layer3"
     inkscape:label="star"
     style="display:none"
     sodipodi:insensitive="true"
     transform="translate(-3.6343852,-9.0611229)"><g
       id="g29"
       inkscape:label="star"
       transform="matrix(1.340527,-0.38748724,0.44153211,1.5274972,-377.14689,91.441655)"><path
         style="display:inline;fill:#030100;fill-opacity:1;stroke-width:6.70421"
         d="m 251.34399,168.15049 163.16775,47.02752 20.03251,-62.00663 31.98734,10.10221 20.67869,-62.0067 32.1489,9.75388 10.01622,-31.525836 32.95663,10.102223 -10.17776,31.003313 32.63352,8.5346 -19.54779,60.61328 33.27973,9.92796 -20.03244,62.52922 163.53429,46.71802 -20.3338,62.31946 -32.67111,-10.3455 -8.45334,31.03658 -34.27038,-10.34557 -9.13876,32.26824 -33.12806,-9.60657 -19.19145,59.60994 32.21417,9.36021 -19.41989,62.56577 33.58499,9.85292 -20.79071,62.31947 -99.38416,-29.55865 10.73808,-29.31237 -65.57074,-19.45942 9.36726,-30.29759 -32.44262,-10.09922 9.59571,-28.81964 -32.21418,-9.36029 -8.45337,29.31237 -33.12805,-9.85287 -10.28116,32.51447 -65.11371,-19.70573 -9.36727,31.28288 -99.38416,-28.81972 20.33378,-62.0731 31.52879,9.11392 20.56221,-61.33417 32.67111,9.36021 19.6484,-60.84153 -32.67112,-9.85292 10.05265,-30.54394 -33.12807,-9.6065 9.5957,-30.29766 -32.89955,-9.36022 c 0,0 18.42665,-60.34888 20.86522,-62.19632 z"
         id="path4" /><path
         id="path14"
         style="display:inline;fill:#800000;fill-opacity:1;stroke-width:6.70421"
         d="m 500.30074,172.20263 -21.41308,61.34586 -63.57077,-18.02848 -20.35379,60.96517 -97.73331,-27.69534 -9.0545,29.78913 31.66561,9.92519 -8.72662,30.30587 31.82949,9.76201 -19.54664,62.17523 -32.4727,-10.10193 -20.94638,62.37919 32.19519,9.17741 11.70277,-30.23785 64.1635,18.27324 9.88681,-30.02033 33.29238,8.91909 8.87798,-30.67294 32.68706,8.04893 -9.48329,32.1957 32.28352,8.26647 10.49215,-30.67293 32.88883,8.48399 9.30676,-28.79666 33.39323,7.99455 9.69764,-30.15627 31.6782,9.23178 11.41275,-30.4554 31.66561,9.8436 9.13017,-31.06721 -128.40266,-37.22632 8.27265,-31.06721 -32.24568,-10.76812 19.73336,-60.85907 z m 28.70204,243.46641 -10.84525,30.30587 -31.24941,-9.08225 -10.41647,31.37992 32.25284,10.00099 -11.12761,31.68357 33.66996,10.46315 29.38155,-95.36986 z"
         sodipodi:nodetypes="cccccccccccccccccccccccccccccccccccccccccccc" /><path
         id="path5"
         style="display:inline;fill:#4d4d4d;fill-opacity:1;stroke-width:6.70421"
         d="m 519.33426,111.058 -19.03352,61.15827 32.24026,9.90646 19.56465,-61.55832 z m -52.84295,51.96728 -19.6728,61.60414 32.68706,9.35414 20.73209,-61.67212 z m -192.53942,46.5719 -10.42694,29.39757 131.71018,38.43632 9.56438,-30.08243 z m 78.56343,89.17208 -9.71025,30.29229 23.92261,6.73006 9.05449,3.18149 2.42127,-8.90543 6.69631,-21.45473 z m 140.83685,6.45821 -0.28991,0.85659 -0.30282,-0.0953 -5.03171,15.44524 -4.88036,14.09922 32.95191,9.74851 4.19937,-14.41199 5.14516,-15.1869 -0.65574,-0.19005 0.20145,-0.68011 z m -42.10727,21.37315 -0.13881,0.42185 -0.0885,-0.0279 -9.84899,28.7423 h 0.0134 l -0.35318,1.01968 22.15708,6.58053 8.71404,3.03197 0.13881,-0.40794 0.0884,0.0279 10.55516,-29.69397 -0.0516,-0.0139 0.0885,-0.23111 -11.19831,-3.22229 z m 44.55383,79.57832 -10.31561,30.44182 33.00228,9.85717 10.80742,-31.54308 z"
         sodipodi:nodetypes="ccccccccccccccccccccccccccccccccccccccccccccccccccccc" /><path
         id="path15"
         style="fill:#ff0000;fill-opacity:1;stroke-width:6.70421"
         d="m 532.34613,181.83885 -19.52294,60.98221 31.89728,10.55845 20.05898,-61.5712 z m 12.56894,71.75041 -8.14009,30.47085 32.48231,9.57169 8.98897,-31.07843 z m 120.26438,67.86819 -9.05094,31.06987 32.87834,8.53294 8.9169,-30.14966 z m -41.09157,20.86032 -11.26139,31.3527 33.88504,8.62001 9.45804,-29.89793 z m -42.72846,21.35608 -9.69771,30.38195 32.24819,10.14893 9.12617,-31.06408 z m -43.22646,22.28757 -9.48329,29.63961 32.04391,9.42217 10.8831,-31.04 z m -107.96061,2.12109 -9.20584,30.74081 32.69964,8.91915 9.25628,-31.37992 z m -42.18293,22.09607 -10.04063,30.18182 33.03352,9.27836 9.9359,-30.62463 z m -74.11341,11.56797 -11.80363,30.61849 66.78653,17.94697 9.1301,-30.02025 z m 139.72862,6.01026 -10.92416,32.51648 34.24635,8.16511 10.41576,-31.53906 z m -217.00729,5.51928 -10.0886,28.82382 67.19007,20.66623 8.57534,-30.45539 z m 314.96607,20.4622 -30.08921,95.64894 65.1597,18.26663 10.70903,-32.1602 -32.09834,-10.30173 19.42202,-61.35163 z m -74.64305,14.69746 -11.30523,31.00109 31.96424,10.30345 11.46058,-31.89601 z"
         sodipodi:nodetypes="ccccccccccccccccccccccccccccccccccccccccccccccccccccccccccccccccccc" /></g></g><g
     inkscape:groupmode="layer"
     id="layer4"
     inkscape:label="arrow"
     style="display:none"
     sodipodi:insensitive="true"
     transform="translate(-3.6343852,-9.0611229)"><g
       id="g31"
       inkscape:label="arrow"
       transform="matrix(-1.517606,-1.4282404,1.4282404,-1.517606,166.15211,2608.7902)"><path
         style="fill:#000000;fill-opacity:1;stroke-width:5.55666"
         d="m 461.63005,761.03378 117.34647,136.13155 -52.18913,49.57171 57.8825,67.87516 25.62013,-24.40458 24.11767,27.64578 24.90847,-24.4999 24.03864,26.8831 25.77827,-24.59519 23.32694,27.07379 63.8131,-61.29731 -22.0618,-26.97846 25.46197,-24.97654 -23.32693,-27.74105 25.22473,-23.73725 -22.14085,-26.69248 24.90847,-25.45314 -57.5662,-68.44709 -51.71469,49.57171 -117.16029,-136.54313 z"
         id="path29" /><path
         style="fill:#800000;fill-opacity:1;stroke-width:5.55666"
         d="m 498.32058,763.32169 116.14471,136.24108 -51.44096,48.26461 23.93125,28.58124 25.23221,-25.85837 24.03865,28.31305 25.14565,-24.97651 23.5642,28.02709 26.09456,-24.97654 23.24788,27.93179 26.25273,-25.92981 -23.24789,-26.69248 26.09456,-25.16717 -23.72232,-26.88311 26.09456,-24.59519 -23.24789,-27.45511 26.25273,-24.5952 -24.35495,-28.21775 -51.87283,49.95303 -116.53097,-136.84745 z"
         id="path30" /><path
         style="fill:#ff0000;fill-opacity:1;stroke-width:5.55666"
         d="m 547.82119,765.80029 115.29056,135.55957 -25.46199,24.40454 23.72233,28.40841 26.09459,-24.78586 23.56417,27.45511 26.41086,-24.78588 -164.00039,-192.18573 z"
         id="path31" /></g></g><g
     inkscape:groupmode="layer"
     id="layer6"
     inkscape:label="letering"
     transform="translate(-3.6343852,-9.0611229)"><g
       id="g104"
       inkscape:label="AboutMe"
       style="display:none"
       transform="translate(-2.1538059,56.618795)"><path
         style="fill:#ffffff;fill-opacity:1;stroke:#000000;stroke-width:3.56018;stroke-opacity:0.0345679"
         d="m 228.34976,350.05757 1,173.40471 10.94036,12.6954 82.14854,-0.125 11.01364,-14.35731 1.75,-47.31972 9.17855,-9.9049 h 44.28712 l 9.35358,11.10361 -1.34099,42.73567 12.14182,17.87923 74.05491,-0.47227 12.83175,-22.22522 V 344.39336 l -8.05669,-8.0567 h -24.57858 v -28.446 l -6.43777,-6.4378 h -21.85706 l -3.42444,-8.23182 -7.07107,-6.71174 -113.82264,0.35355 -8.48528,6.85394 -4.45898,7.72321 H 270.6014 l -7.70897,7.70901 v 29.96011 h -25.73168 z"
         id="path8"
         inkscape:label="bigA"
         clip-path="url(#clipPath35)"
         sodipodi:nodetypes="ccccccccccccccccccccccccccccc"
         transform="matrix(0.1244175,0,0,0.1244175,-14.890503,-83.043109)"
         inkscape:path-effect="#path-effect36"
         inkscape:original-d="m 228.34976,350.05757 1,173.40471 10.94036,12.6954 82.14854,-0.125 11.01364,-14.35731 1.75,-47.31972 9.17855,-9.9049 h 44.28712 l 9.35358,11.10361 -1.34099,42.73567 12.14182,17.87923 74.05491,-0.47227 12.83175,-22.22522 V 344.39336 l -8.05669,-8.0567 h -24.57858 v -28.446 l -6.43777,-6.4378 h -21.85706 l -3.42444,-8.23182 -7.07107,-6.71174 -113.82264,0.35355 -8.48528,6.85394 -4.45898,7.72321 H 270.6014 l -7.70897,7.70901 v 29.96011 h -25.73168 z" /><path
         style="fill:#ffffff;fill-opacity:1;stroke:#000000;stroke-width:2.27312;stroke-opacity:0.0345679"
         d="m 382.61622,413.50313 v 217.0834 l 21.0264,19.03741 170.33545,-1.0043 10.44771,-10.44771 v -19.66137 l 3.19787,-5.54074 h 24.9306 l 8.07203,-13.93558 c -0.60029,-24.43094 -0.1219,-39.18741 0.15591,-61.35066 l -10.56936,-6.26211 h -20.74227 l -2.48623,-2.48623 v -10.44217 l 2.94798,-2.94794 h 24.82676 l 6.48195,-13.48198 -0.69913,-51.87958 -7.72614,-12.27985 -20.25281,-0.75 -7.1155,-9.35766 -1.03414,-15.85679 -15.53523,-13.04075 -172.92207,1.25 z"
         id="path12"
         inkscape:label="bigB"
         sodipodi:nodetypes="ccccccccccccccccccccccccc"
         clip-path="url(#clipPath44)"
         inkscape:path-effect="#path-effect45"
         inkscape:original-d="m 382.61622,413.50313 v 217.0834 l 21.0264,19.03741 170.33545,-1.0043 10.44771,-10.44771 v -19.66137 l 3.19787,-5.54074 h 24.9306 l 8.07203,-13.93558 c -0.60029,-24.43094 -0.1219,-39.18741 0.15591,-61.35066 l -10.56936,-6.26211 h -20.74227 l -2.48623,-2.48623 v -10.44217 l 2.94798,-2.94794 h 24.82676 l 6.48195,-13.48198 -0.69913,-51.87958 -7.72614,-12.27985 -20.25281,-0.75 -7.1155,-9.35766 -1.03414,-15.85679 -15.53523,-13.04075 -172.92207,1.25 z"
         transform="matrix(0.1244175,0,0,0.1244175,2.176933,-97.119343)" /><path
         style="fill:#ffffff;fill-opacity:1;stroke:#000000;stroke-width:2.26484;stroke-opacity:0.0345679"
         d="m 661.52903,443.37094 v 160.74899 l 13.11545,11.5865 h 12.03197 l 4.38812,4.38812 v 17.55252 l 10.40411,10.40411 h 151.83811 l 12.25664,-12.25661 v -25.46889 l 6.68354,-6.68357 h 14.29063 l 10.67121,-10.6712 V 450.37303 l -11.84149,-11.84148 h -14.10635 l -5.68655,-5.68657 v -24.08839 l -8.05627,-8.05627 H 697.36226 l -9.82463,9.82463 v 16.63096 l -7.89957,7.89956 H 668.9359 Z"
         id="path17"
         clip-path="url(#clipPath46)"
         inkscape:path-effect="#path-effect46"
         inkscape:original-d="m 661.52903,443.37094 v 160.74899 l 13.11545,11.5865 h 12.03197 l 4.38812,4.38812 v 17.55252 l 10.40411,10.40411 h 151.83811 l 12.25664,-12.25661 v -25.46889 l 6.68354,-6.68357 h 14.29063 l 10.67121,-10.6712 V 450.37303 l -11.84149,-11.84148 h -14.10635 l -5.68655,-5.68657 v -24.08839 l -8.05627,-8.05627 H 697.36226 l -9.82463,9.82463 v 16.63096 l -7.89957,7.89956 H 668.9359 Z"
         transform="matrix(0.1244175,0,0,0.1244175,2.176933,-97.119343)" /><path
         style="fill:#ffffff;fill-opacity:1;stroke:#000000;stroke-width:0.285178;stroke-opacity:0.0345679"
         d="m 117.99248,-45.706118 v 23.153836 l 0.83875,1.647465 1.83618,0.186623 0.92683,0.926832 v 2.352709 l 1.10506,1.105065 h 18.99989 l 1.22984,-1.229834 v -2.548768 l 1.43481,-1.434794 h 2.16993 l 0.80261,-0.802628 v -23.185836 l -1.02769,-1.780027 h -7.79053 l -1.29333,1.293321 v 20.248455 l -1.00535,1.741357 h -5.96899 l -0.99101,-1.716487 v -19.232082 -1.260315 l -1.16812,-1.168111 h -8.21197 z"
         id="path18"
         sodipodi:nodetypes="cccccccccccccccccccccccccc" /><path
         style="fill:#ffffff;fill-opacity:1;stroke:#000000;stroke-width:0.280405;stroke-opacity:0.0345679"
         d="m 151.37036,-45.245256 -0.16195,4.36109 1.31014,1.760546 5.35839,-0.157736 0.90193,0.859296 0.26392,19.9518 1.83406,1.834049 h 7.78233 l 1.73492,-1.734908 -0.3368,-20.344941 1.11917,-1.092099 6.12773,-0.2124 1.22592,-1.362305 -0.0365,-4.869377 -2.27857,-1.192997 -22.90543,0.117518 z"
         id="path19"
         sodipodi:nodetypes="ccccccccccccccccc" /><path
         style="fill:#ffffff;fill-opacity:1;stroke:#000000;stroke-width:0.281856;stroke-opacity:0.0345679"
         d="m 195.05294,-45.792456 v 27.780379 l 1.49734,1.497353 h 7.8391 l 1.34762,-1.347621 V -32.19637 l 0.55337,-0.553352 h 0.87722 l 0.50088,0.500886 v 6.878555 l 0.92045,0.920447 h 3.88507 l 0.98993,-0.571527 v -8.034754 l 0.60659,-0.606592 h 0.95892 l 0.5147,0.51469 v 14.854078 l 1.469,1.469022 h 6.36627 l 1.47438,-1.474379 v -27.757397 l -1.23043,-1.230437 h -7.1494 l -0.89709,0.897078 v 2.447275 l -0.66126,0.661263 h -2.52857 l -0.88484,0.88487 v 2.71693 l -0.32237,0.558323 h -0.55438 l -0.35069,-0.607397 v -2.910405 l -0.7495,-0.749504 h -2.56393 l -0.65581,-0.655783 v -2.646391 l -0.95303,-0.550241 h -8.69807 z"
         id="path21" /><path
         style="fill:#ffffff;fill-opacity:1;stroke:#000000;stroke-width:0.280205;stroke-opacity:0.0345679"
         d="m 229.27322,-45.857545 -0.10505,26.829273 2.71252,2.712479 h 25.20256 l 1.49632,-1.496347 v -4.5085 l -1.50122,-1.501215 h -15.58132 l -0.93063,-0.930601 v -2.051403 l 1.04324,-1.043217 h 12.60154 l 1.47484,-1.474828 v -4.907291 l -1.50799,-1.507965 h -12.61094 l -1.18988,-1.189916 v -2.90614 l 1.51205,-0.872996 h 15.61428 l 2.51432,-1.451645 v -3.804765 l -1.37974,-1.379745 h -27.57857 z"
         id="path22" /><path
         style="fill:#ffffff;fill-opacity:1;stroke:#000000;stroke-width:0.280205;stroke-opacity:0.0345679"
         d="m 229.27322,-45.857545 -0.10505,26.829273 2.71252,2.712479 h 25.20256 l 1.49632,-1.496347 v -4.5085 l -1.50122,-1.501215 h -15.58132 l -0.93063,-0.930601 v -2.051403 l 1.04324,-1.043217 h 12.60154 l 1.47484,-1.474828 v -4.907291 l -1.50799,-1.507965 h -12.61094 l -1.18988,-1.189916 v -2.90614 l 1.51205,-0.872996 h 15.61428 l 2.51432,-1.451645 v -3.804765 l -1.37974,-1.379745 h -27.57857 z"
         id="path54" /></g><g
       id="g106"
       inkscape:label="services"
       style="display:inline"
       transform="translate(10.960155,103.23759)"><path
         style="fill:#ffffff;fill-opacity:1;stroke:#000000;stroke-width:1.89687;stroke-opacity:0.0345679"
         d="m -1.1826833,-91.795144 v 2.815665 l -0.5483122,0.548315 h -2.7119314 l -0.4147258,0.718325 v 7.929245 l 0.928527,0.928526 h 1.7249181 l 0.4964537,0.859886 v 2.654608 l 1.3109878,0.756899 H 13.514022 l 1.130502,1.1305 0.0012,3.435841 -0.754475,0.796391 H 6.4722559 l -0.775434,-0.775432 v -3.248434 l -1.460841,-0.843418 H -4.593379 l -1.783956,1.783956 v 4.759939 l 2.0082077,1.15944 h 2.3325801 l 1.0130606,1.013061 v 2.480095 l 1.5770555,0.910515 H 17.621721 l 1.39835,-1.398351 v -3.703693 l 1.187013,-1.187011 h 2.151065 v -7.489451 h -1.634698 l -0.964052,-0.964052 v -4.233442 l -1.301227,-0.751264 H 6.8494929 l -1.145436,-0.661319 v -3.449592 l 1.075701,-1.075701 h 7.0695871 l 1.187528,0.68562 v 3.030745 l 1.47586,0.852089 h 5.426262 l 1.096688,-1.096688 v -4.366083 l -0.987168,-0.569941 h -1.492724 v -4.459892 H -0.0246136 Z"
         id="path47" /><path
         style="fill:#ffffff;fill-opacity:1;stroke:#000000;stroke-opacity:0.0345679"
         d="m 30.250913,17.545087 v 14.120039 l 0.917029,0.917029 h 3.170932 l 0.933602,-0.933602 v -4.071388 l 0.483373,-0.483374 h 0.792733 l 0.29693,0.296929 v 1.622755 l 0.286906,0.496936 h 0.940863 l 0.283167,0.490459 v 1.752644 l 0.808591,0.808592 h 5.272202 l 0.53688,-0.536879 v -2.72449 l -0.44522,-0.445215 h -1.616358 v -0.991095 h -1.59099 L 41.03223,27.363305 v -1.399228 l 0.6087,-0.6087 h 2.310181 l 0.97728,-0.977281 V 19.732699 L 44.274021,19.07833 H 43.221903 L 42.76464,18.621068 V 17.390407 L 42.197776,16.823543 H 30.869631 Z"
         id="path48"
         clip-path="url(#clipPath49)"
         inkscape:path-effect="#path-effect50"
         inkscape:original-d="m 30.250913,17.545087 v 14.120039 l 0.917029,0.917029 h 3.170932 l 0.933602,-0.933602 v -4.071388 l 0.483373,-0.483374 h 0.792733 l 0.29693,0.296929 v 1.622755 l 0.286906,0.496936 h 0.940863 l 0.283167,0.490459 v 1.752644 l 0.808591,0.808592 h 5.272202 l 0.53688,-0.536879 v -2.72449 l -0.44522,-0.445215 h -1.616358 v -0.991095 h -1.59099 L 41.03223,27.363305 v -1.399228 l 0.6087,-0.6087 h 2.310181 l 0.97728,-0.977281 V 19.732699 L 44.274021,19.07833 H 43.221903 L 42.76464,18.621068 V 17.390407 L 42.197776,16.823543 H 30.869631 Z"
         transform="matrix(1.9775273,0,0,1.9775273,0.8950146,-126.41025)" /><path
         style="fill:#ffffff;fill-opacity:1;stroke:#000000;stroke-width:1.98439;stroke-opacity:0.0345679"
         d="m 93.503655,-92.016462 v 16.712352 l 0.63562,0.635629 h 2.91458 l 0.53486,0.534857 v 2.964279 l 0.51924,0.519236 h 2.492455 l 0.60639,0.606408 v 3.127749 l 0.83688,0.83688 h 2.39355 l 0.66683,0.666833 v 2.70583 l 0.81764,0.817631 h 5.20257 l 0.8473,-0.847309 v -3.171328 l 0.95761,-0.957602 h 1.57148 l 0.51731,-0.895991 v -3.145242 l 0.85951,-0.85951 h 1.91188 l 0.79805,-0.798027 v -2.595854 l 0.82877,-0.828771 h 2.40735 l 0.85724,-0.857247 v -14.302628 l -1.36441,-1.364413 h -7.06956 l -1.20931,1.209312 v 9.643004 l -0.94565,0.945654 h -2.1239 v 5.999738 h -3.03861 v -5.333069 h -4.03081 v -12.030413 l -0.96118,-0.961193 h -7.348475 z"
         id="path51" /><path
         style="fill:#ffffff;fill-opacity:1;stroke:#000000;stroke-width:1.98943;stroke-opacity:0.0345679"
         d="m 129.15989,-87.916236 7.97337,-0.126422 0.70718,0.707183 v 17.586319 l -0.98306,0.983063 h -7.94609 l -1.21813,1.218141 v 4.202299 l 1.51052,1.510534 h 23.58086 l 1.40805,-1.40805 v -3.708339 l -0.90483,-1.567242 h -6.09851 l -1.17472,-1.174732 v -17.401084 l 0.51514,-0.892256 h 6.37921 l 1.1703,-1.170292 v -3.097558 l -0.92709,-0.92708 h -24.2408 l -1.02307,1.02307 v 3.261187 z"
         id="path52"
         sodipodi:nodetypes="ccccccccccccccccccccccccc" /><path
         style="fill:#ffffff;fill-opacity:1;stroke:#000000;stroke-width:2.1642;stroke-opacity:0.0345679"
         d="m 157.43374,-83.761908 v 13.055562 l 1.5826,0.913717 h 2.96054 l 0.7387,0.738705 v 2.077739 l 0.68275,0.682743 h 2.26089 l 0.85419,0.854193 v 2.814918 l 0.72063,0.720645 h 15.64131 l 0.88637,-0.88637 v -2.51234 l 0.89585,-0.895844 h 4.53037 l 0.8672,-0.867199 v -3.210503 l -0.8162,-0.81618 h -8.37215 l -0.695,0.695024 v 2.607928 l -0.82416,0.824142 h -6.41937 v -3.741318 l -0.8369,-0.836894 h -3.37149 l -0.81735,-1.415655 v -7.551078 l 1.05428,-1.05427 h 2.3933 l 0.83582,-0.835808 v -4.087744 l 0.99284,-0.99286 h 4.24481 l 1.21752,0.702928 v 4.689609 l 1.60201,0.924923 h 8.32313 l 1.44283,-1.442824 v -5.220808 l -0.74534,-0.745323 h -3.42337 l -1.06202,-1.062015 v -2.879275 l -0.79422,-0.45854 h -16.31633 l -0.76728,0.767274 v 2.584533 l -0.77605,0.776062 h -4.36276 l -0.83147,0.831445 v 3.103016 l -0.68419,0.684198 h -2.07105 z"
         id="path53" /><path
         style="fill:#ffffff;fill-opacity:1;stroke:#000000;stroke-width:0.280205;stroke-opacity:0.0345679"
         d="m 193.30086,-91.455529 -0.10505,26.829273 2.71252,2.71248 h 25.20256 l 1.49632,-1.49635 v -4.5085 l -1.50121,-1.50121 h -15.58133 l -0.93063,-0.9306 v -2.05141 l 1.04324,-1.04321 h 12.60154 l 1.47484,-1.47483 v -4.907293 l -1.50799,-1.507965 h -12.61094 l -1.18988,-1.189916 v -2.90614 l 1.51205,-0.872996 h 15.61428 l 2.51432,-1.451645 v -3.804765 l -1.37974,-1.379745 H 195.0872 Z"
         id="path62" /><path
         style="fill:#ffffff;fill-opacity:1;stroke:#000000;stroke-width:0.280205;stroke-opacity:0.0345679"
         d="m 26.438038,-91.429641 -0.10505,26.829273 2.71252,2.71248 h 25.20256 l 1.49632,-1.49635 v -4.5085 l -1.50121,-1.50121 h -15.58133 l -0.93063,-0.9306 v -2.05141 l 1.04324,-1.04321 h 12.60154 l 1.47484,-1.47483 v -4.907293 l -1.50799,-1.507965 h -12.61094 l -1.18988,-1.189916 v -2.90614 l 1.51205,-0.872996 h 15.61428 l 2.51432,-1.451645 v -3.804765 l -1.37974,-1.379744 h -27.57856 z"
         id="path71" /><path
         style="fill:#ffffff;fill-opacity:1;stroke:#000000;stroke-width:1.89687;stroke-opacity:0.0345679"
         d="m 230.81731,-91.795144 v 2.815665 l -0.54831,0.548315 h -2.71193 l -0.41473,0.718325 v 7.929245 l 0.92853,0.928526 h 1.72492 l 0.49645,0.859886 v 2.654608 l 1.31099,0.756899 h 13.91079 l 1.1305,1.1305 0.001,3.435841 -0.75448,0.796391 h -7.41899 l -0.77543,-0.775432 v -3.248434 l -1.46084,-0.843418 h -8.82936 l -1.78396,1.783956 v 4.759939 l 2.00821,1.15944 h 2.33258 l 1.01306,1.013061 v 2.480095 l 1.57705,0.910515 h 17.06816 l 1.39835,-1.398351 v -3.703693 l 1.18701,-1.187011 h 2.15106 v -7.489451 h -1.63469 l -0.96406,-0.964052 v -4.233442 l -1.30122,-0.751264 h -11.60848 l -1.14544,-0.661319 v -3.449592 l 1.0757,-1.075701 h 7.06959 l 1.18753,0.68562 v 3.030745 l 1.47586,0.852089 h 5.42626 l 1.09669,-1.096688 v -4.366083 l -0.98717,-0.569941 h -1.49272 v -4.459892 h -20.58041 z"
         id="path72" /></g><g
       id="g108"
       inkscape:label="portfolio"
       style="display:none"><g
         id="g109"><path
           style="fill:#ffffff;fill-opacity:1;stroke:#000000;stroke-opacity:0.0345679"
           d="m 32.571107,20.616582 v 13.533005 l 0.888556,0.888557 h 2.794806 l 0.804688,-0.464587 v -3.67397 l 0.675781,-0.675781 h 6.207031 l 0.867925,-0.501097 v -1.354372 h 1.475825 l 0.5,-0.5 v -5.1875 L 46.301344,22.196462 H 45.379469 V 20.524587 L 44.801344,19.946462 H 33.254469 Z"
           id="path73"
           clip-path="url(#clipPath74)"
           transform="matrix(1.8449556,0,0,1.8449556,-55.687049,-26.118712)"
           inkscape:original-d="m 32.571107,20.616582 v 13.533005 l 0.888556,0.888557 h 2.794806 l 0.804688,-0.464587 v -3.67397 l 0.675781,-0.675781 h 6.207031 l 0.867925,-0.501097 v -1.354372 h 1.475825 l 0.5,-0.5 v -5.1875 L 46.301344,22.196462 H 45.379469 V 20.524587 L 44.801344,19.946462 H 33.254469 Z"
           inkscape:path-effect="#path-effect75" /><path
           style="fill:#ffffff;fill-opacity:1;stroke:#000000;stroke-width:1.86741;stroke-opacity:0.0345679"
           d="m 122.4421,11.996188 v 24.727088 l 1.85758,1.857573 h 6.17593 l 1.48317,-1.483177 v -9.040354 l 1.08205,-1.082057 h 12.54915 l 1.26803,-1.268022 v -3.398043 l -1.11546,-1.115462 h -12.78677 l -0.84284,-0.842825 v -3.935732 l 1.06333,-1.063338 h 16.44031 l 1.02937,-1.02938 v -2.95513 l -1.07865,-0.62276 h -26.26956 z"
           id="path76" /><path
           style="fill:#ffffff;fill-opacity:1;stroke:#000000;stroke-width:1.85889;stroke-opacity:0.0345679"
           d="m 183.48039,11.730519 v 25.097414 l 1.7868,1.786803 h 20.96928 l 0.97947,-0.565502 v -4.096618 l -0.9005,-0.900503 h -12.48391 l -1.23386,-1.233866 V 11.853744 l -1.00559,-1.005563 h -7.0848 z"
           id="path77" /><path
           style="fill:#ffffff;fill-opacity:1;stroke:#000000;stroke-width:2.26484;stroke-opacity:0.0345679"
           d="m 661.52903,443.37094 v 160.74899 l 13.11545,11.5865 h 12.03197 l 4.38812,4.38812 v 17.55252 l 10.40411,10.40411 h 151.83811 l 12.25664,-12.25661 v -25.46889 l 6.68354,-6.68357 h 14.29063 l 10.67121,-10.6712 V 450.37303 l -11.84149,-11.84148 h -14.10635 l -5.68655,-5.68657 v -24.08839 l -8.05627,-8.05627 H 697.36226 l -9.82463,9.82463 v 16.63096 l -7.89957,7.89956 H 668.9359 Z"
           id="path82"
           clip-path="url(#clipath_lpe_path-effect83)"
           transform="matrix(0.11127384,0,0,0.11127384,-39.453431,-33.685208)"
           inkscape:original-d="m 661.52903,443.37094 v 160.74899 l 13.11545,11.5865 h 12.03197 l 4.38812,4.38812 v 17.55252 l 10.40411,10.40411 h 151.83811 l 12.25664,-12.25661 v -25.46889 l 6.68354,-6.68357 h 14.29063 l 10.67121,-10.6712 V 450.37303 l -11.84149,-11.84148 h -14.10635 l -5.68655,-5.68657 v -24.08839 l -8.05627,-8.05627 H 697.36226 l -9.82463,9.82463 v 16.63096 l -7.89957,7.89956 H 668.9359 Z"
           inkscape:path-effect="#path-effect83" /><path
           style="fill:#ffffff;fill-opacity:1;stroke:#000000;stroke-opacity:0.0345679"
           d="m 30.250913,17.545087 v 14.120039 l 0.917029,0.917029 h 3.170932 l 0.933602,-0.933602 v -4.071388 l 0.483373,-0.483374 h 0.792733 l 0.29693,0.296929 v 1.622755 l 0.286906,0.496936 h 0.940863 l 0.283167,0.490459 v 1.752644 l 0.808591,0.808592 h 5.272202 l 0.53688,-0.536879 v -2.72449 l -0.44522,-0.445215 h -1.616358 v -0.991095 h -1.59099 L 41.03223,27.363305 v -1.399228 l 0.6087,-0.6087 h 2.310181 l 0.97728,-0.977281 V 19.732699 L 44.274021,19.07833 H 43.221903 L 42.76464,18.621068 V 17.390407 L 42.197776,16.823543 H 30.869631 Z"
           id="path84"
           clip-path="url(#clipath_lpe_path-effect85)"
           transform="matrix(1.7686182,0,0,1.7686182,10.795336,-18.870411)"
           inkscape:original-d="m 30.250913,17.545087 v 14.120039 l 0.917029,0.917029 h 3.170932 l 0.933602,-0.933602 v -4.071388 l 0.483373,-0.483374 h 0.792733 l 0.29693,0.296929 v 1.622755 l 0.286906,0.496936 h 0.940863 l 0.283167,0.490459 v 1.752644 l 0.808591,0.808592 h 5.272202 l 0.53688,-0.536879 v -2.72449 l -0.44522,-0.445215 h -1.616358 v -0.991095 h -1.59099 L 41.03223,27.363305 v -1.399228 l 0.6087,-0.6087 h 2.310181 l 0.97728,-0.977281 V 19.732699 L 44.274021,19.07833 H 43.221903 L 42.76464,18.621068 V 17.390407 L 42.197776,16.823543 H 30.869631 Z"
           inkscape:path-effect="#path-effect85" /><path
           style="fill:#ffffff;fill-opacity:1;stroke:#000000;stroke-width:2.26484;stroke-opacity:0.0345679"
           d="m 661.52903,443.37094 v 160.74899 l 13.11545,11.5865 h 12.03197 l 4.38812,4.38812 v 17.55252 l 10.40411,10.40411 h 151.83811 l 12.25664,-12.25661 v -25.46889 l 6.68354,-6.68357 h 14.29063 l 10.67121,-10.6712 V 450.37303 l -11.84149,-11.84148 h -14.10635 l -5.68655,-5.68657 v -24.08839 l -8.05627,-8.05627 H 697.36226 l -9.82463,9.82463 v 16.63096 l -7.89957,7.89956 H 668.9359 Z"
           id="path86"
           clip-path="url(#clipath_lpe_path-effect87)"
           transform="matrix(0.11127384,0,0,0.11127384,79.572738,-33.685208)"
           inkscape:original-d="m 661.52903,443.37094 v 160.74899 l 13.11545,11.5865 h 12.03197 l 4.38812,4.38812 v 17.55252 l 10.40411,10.40411 h 151.83811 l 12.25664,-12.25661 v -25.46889 l 6.68354,-6.68357 h 14.29063 l 10.67121,-10.6712 V 450.37303 l -11.84149,-11.84148 h -14.10635 l -5.68655,-5.68657 v -24.08839 l -8.05627,-8.05627 H 697.36226 l -9.82463,9.82463 v 16.63096 l -7.89957,7.89956 H 668.9359 Z"
           inkscape:path-effect="#path-effect87" /><path
           style="fill:#ffffff;fill-opacity:1;stroke:#000000;stroke-width:1.77926;stroke-opacity:0.0345679"
           d="m 211.8669,15.306459 7.13105,-0.113065 0.63247,0.632473 V 31.55434 l -0.8792,0.879208 h -7.10666 l -1.08944,1.089454 v 3.758362 l 1.35094,1.350964 h 21.08974 l 1.25931,-1.259301 v -3.316585 l -0.80925,-1.401674 h -5.45425 l -1.05062,-1.05063 V 16.041326 l 0.46072,-0.797991 h 5.7053 l 1.04667,-1.046668 v -2.770328 l -0.82915,-0.829142 h -21.67997 l -0.91499,0.914991 v 2.916673 z"
           id="path88"
           sodipodi:nodetypes="ccccccccccccccccccccccccc" /><path
           style="fill:#ffffff;fill-opacity:1;stroke:#000000;stroke-width:2.26484;stroke-opacity:0.0345679"
           d="m 661.52903,443.37094 v 160.74899 l 13.11545,11.5865 h 12.03197 l 4.38812,4.38812 v 17.55252 l 10.40411,10.40411 h 151.83811 l 12.25664,-12.25661 v -25.46889 l 6.68354,-6.68357 h 14.29063 l 10.67121,-10.6712 V 450.37303 l -11.84149,-11.84148 h -14.10635 l -5.68655,-5.68657 v -24.08839 l -8.05627,-8.05627 H 697.36226 l -9.82463,9.82463 v 16.63096 l -7.89957,7.89956 H 668.9359 Z"
           id="path89"
           clip-path="url(#clipath_lpe_path-effect90)"
           transform="matrix(0.11127384,0,0,0.11127384,165.43115,-33.685208)"
           inkscape:original-d="m 661.52903,443.37094 v 160.74899 l 13.11545,11.5865 h 12.03197 l 4.38812,4.38812 v 17.55252 l 10.40411,10.40411 h 151.83811 l 12.25664,-12.25661 v -25.46889 l 6.68354,-6.68357 h 14.29063 l 10.67121,-10.6712 V 450.37303 l -11.84149,-11.84148 h -14.10635 l -5.68655,-5.68657 v -24.08839 l -8.05627,-8.05627 H 697.36226 l -9.82463,9.82463 v 16.63096 l -7.89957,7.89956 H 668.9359 Z"
           inkscape:path-effect="#path-effect90" /><path
           style="display:inline;fill:#ffffff;fill-opacity:1;stroke:#000000;stroke-width:0.264026;stroke-opacity:0.0345679"
           d="m 93.25894,12.247244 -0.152489,4.106354 1.233613,1.657711 5.045406,-0.148523 0.84924,0.809104 0.24851,18.786395 1.72692,1.726921 h 7.32776 l 1.63359,-1.633571 -0.31713,-19.156572 1.05379,-1.028308 5.76981,-0.199994 1.15431,-1.282731 -0.0344,-4.584952 -2.14547,-1.123313 -21.567504,0.110654 z"
           id="path108"
           sodipodi:nodetypes="ccccccccccccccccc" /></g></g><g
       id="g107"
       inkscape:label="contact"
       style="display:none"
       transform="translate(-271.50819,107.72287)"><path
         style="fill:#ffffff;fill-opacity:1;stroke:#000000;stroke-width:2.1642;stroke-opacity:0.0345679"
         d="m 289.07863,-88.44649 v 13.055562 l 1.5826,0.913717 h 2.96054 l 0.7387,0.738705 v 2.077739 l 0.68275,0.682743 h 2.26089 l 0.85419,0.854193 v 2.814918 l 0.72063,0.720645 h 15.64131 l 0.88637,-0.88637 v -2.51234 l 0.89585,-0.895844 h 4.53037 l 0.8672,-0.867199 v -3.210503 l -0.8162,-0.81618 h -8.37215 l -0.695,0.695024 v 2.607928 l -0.82416,0.824142 h -6.41937 v -3.741318 l -0.8369,-0.836894 h -3.37149 l -0.81735,-1.415655 v -7.551078 l 1.05428,-1.05427 h 2.3933 l 0.83582,-0.835808 v -4.087744 l 0.99284,-0.99286 h 4.24481 l 1.21752,0.702928 v 4.689609 l 1.60201,0.924923 h 8.32313 l 1.44283,-1.442824 v -5.220808 l -0.74534,-0.745323 h -3.42337 l -1.06202,-1.062015 v -2.879275 l -0.79422,-0.45854 h -16.31633 l -0.76728,0.767274 v 2.584533 l -0.77605,0.776062 h -4.36276 l -0.83147,0.831445 v 3.103016 l -0.68419,0.684198 h -2.07105 z"
         id="path93" /><path
         style="fill:#ffffff;fill-opacity:1;stroke:#000000;stroke-width:2.26484;stroke-opacity:0.0345679"
         d="m 661.52903,443.37094 v 160.74899 l 13.11545,11.5865 h 12.03197 l 4.38812,4.38812 v 17.55252 l 10.40411,10.40411 h 151.83811 l 12.25664,-12.25661 v -25.46889 l 6.68354,-6.68357 h 14.29063 l 10.67121,-10.6712 V 450.37303 l -11.84149,-11.84148 h -14.10635 l -5.68655,-5.68657 v -24.08839 l -8.05627,-8.05627 H 697.36226 l -9.82463,9.82463 v 16.63096 l -7.89957,7.89956 H 668.9359 Z"
         id="path94"
         clip-path="url(#clipath_lpe_path-effect95)"
         inkscape:path-effect="#path-effect95"
         inkscape:original-d="m 661.52903,443.37094 v 160.74899 l 13.11545,11.5865 h 12.03197 l 4.38812,4.38812 v 17.55252 l 10.40411,10.40411 h 151.83811 l 12.25664,-12.25661 v -25.46889 l 6.68354,-6.68357 h 14.29063 l 10.67121,-10.6712 V 450.37303 l -11.84149,-11.84148 h -14.10635 l -5.68655,-5.68657 v -24.08839 l -8.05627,-8.05627 H 697.36226 l -9.82463,9.82463 v 16.63096 l -7.89957,7.89956 H 668.9359 Z"
         transform="matrix(0.1244175,0,0,0.1244175,242.57242,-147.23554)" /><path
         style="fill:#ffffff;fill-opacity:1;stroke:#000000;stroke-width:0.280405;stroke-opacity:0.0345679"
         d="m 392.28046,-95.476804 -0.16195,4.36109 1.31014,1.760546 5.35839,-0.157736 0.90193,0.859296 0.26392,19.9518 1.83406,1.834049 h 7.78233 l 1.73492,-1.734908 -0.3368,-20.344941 1.11917,-1.092099 6.12773,-0.2124 1.22592,-1.362305 -0.0365,-4.869377 -2.27857,-1.192997 -22.90543,0.117518 z"
         id="path96"
         sodipodi:nodetypes="ccccccccccccccccc" /><path
         style="fill:#ffffff;fill-opacity:1;stroke:#000000;stroke-width:3.56018;stroke-opacity:0.0345679"
         d="m 228.34976,350.05757 1,173.40471 10.94036,12.6954 82.14854,-0.125 11.01364,-14.35731 1.75,-47.31972 9.17855,-9.9049 h 44.28712 l 9.35358,11.10361 -1.34099,42.73567 12.14182,17.87923 74.05491,-0.47227 12.83175,-22.22522 V 344.39336 l -8.05669,-8.0567 h -24.57858 v -28.446 l -6.43777,-6.4378 h -21.85706 l -3.42444,-8.23182 -7.07107,-6.71174 -113.82264,0.35355 -8.48528,6.85394 -4.45898,7.72321 H 270.6014 l -7.70897,7.70901 v 29.96011 h -25.73168 z"
         id="path97"
         inkscape:label="bigA"
         clip-path="url(#clipath_lpe_path-effect98)"
         sodipodi:nodetypes="ccccccccccccccccccccccccccccc"
         transform="matrix(0.1244175,0,0,0.1244175,395.0893,-133.24769)"
         inkscape:path-effect="#path-effect98"
         inkscape:original-d="m 228.34976,350.05757 1,173.40471 10.94036,12.6954 82.14854,-0.125 11.01364,-14.35731 1.75,-47.31972 9.17855,-9.9049 h 44.28712 l 9.35358,11.10361 -1.34099,42.73567 12.14182,17.87923 74.05491,-0.47227 12.83175,-22.22522 V 344.39336 l -8.05669,-8.0567 h -24.57858 v -28.446 l -6.43777,-6.4378 h -21.85706 l -3.42444,-8.23182 -7.07107,-6.71174 -113.82264,0.35355 -8.48528,6.85394 -4.45898,7.72321 H 270.6014 l -7.70897,7.70901 v 29.96011 h -25.73168 z" /><path
         style="fill:#ffffff;fill-opacity:1;stroke:#000000;stroke-width:2.1642;stroke-opacity:0.0345679"
         d="m 462.02251,-88.515141 v 13.055562 l 1.5826,0.913717 h 2.96054 l 0.7387,0.738705 v 2.077739 l 0.68275,0.682743 h 2.26089 l 0.85419,0.854193 v 2.814918 l 0.72063,0.720645 h 15.64131 l 0.88637,-0.88637 v -2.51234 l 0.89585,-0.895844 h 4.53037 l 0.8672,-0.867199 v -3.210503 l -0.8162,-0.81618 h -8.37215 l -0.695,0.695024 v 2.607928 l -0.82416,0.824142 h -6.41937 v -3.741318 l -0.8369,-0.836894 h -3.37149 l -0.81735,-1.415655 v -7.551078 l 1.05428,-1.05427 h 2.3933 l 0.83582,-0.835808 v -4.087744 l 0.99284,-0.99286 h 4.24481 l 1.21752,0.702928 v 4.689609 l 1.60201,0.924923 h 8.32313 l 1.44283,-1.442824 v -5.220808 l -0.74534,-0.745323 h -3.42337 l -1.06202,-1.062015 v -2.879275 l -0.79422,-0.45854 h -16.31633 l -0.76728,0.767274 v 2.584533 l -0.77605,0.776062 h -4.36276 l -0.83147,0.831445 v 3.103016 l -0.68419,0.684198 h -2.07105 z"
         id="path99" /><path
         style="fill:#ffffff;fill-opacity:1;stroke:#000000;stroke-width:0.280405;stroke-opacity:0.0345679"
         d="m 498.28046,-95.476804 -0.16195,4.36109 1.31014,1.760546 5.35839,-0.157736 0.90193,0.859296 0.26392,19.9518 1.83406,1.834049 h 7.78233 l 1.73492,-1.734908 -0.3368,-20.344941 1.11917,-1.092099 6.12773,-0.2124 1.22592,-1.362305 -0.0365,-4.869377 -2.27857,-1.192997 -22.90543,0.117518 z"
         id="path100"
         sodipodi:nodetypes="ccccccccccccccccc" /><path
         style="fill:#ffffff;fill-opacity:1;stroke:#000000;stroke-width:2.12053;stroke-opacity:0.0345679"
         d="m 357.37878,-96.820579 v 28.825983 l 1.3916,1.391599 h 6.82546 l 1.5904,-1.590399 v -14.909991 l 0.73955,-1.280941 h 3.17018 v 4.594273 h 3.77719 v 3.975997 h 4.90374 v 7.289329 l 1.42472,1.424732 h 5.40074 l 1.27564,-1.27563 v -27.914819 l -1.30049,-1.300481 h -5.47529 l -1.37916,1.379174 v 11.584233 h -4.0547 v -3.71093 l -0.92773,-0.927733 h -2.71693 v -4.439864 h -4.7712 v -3.016792 l -1.11375,-1.113761 h -7.58011 z"
         id="path91" /></g><g
       id="g105"
       inkscape:label="home"
       transform="translate(-1.625,0.25)"
       style="display:none"><path
         style="fill:#ffffff;fill-opacity:1;stroke:#000000;stroke-width:2.26484;stroke-opacity:0.0345679"
         d="m 661.52903,443.37094 v 160.74899 l 13.11545,11.5865 h 12.03197 l 4.38812,4.38812 v 17.55252 l 10.40411,10.40411 h 151.83811 l 12.25664,-12.25661 v -25.46889 l 6.68354,-6.68357 h 14.29063 l 10.67121,-10.6712 V 450.37303 l -11.84149,-11.84148 h -14.10635 l -5.68655,-5.68657 v -24.08839 l -8.05627,-8.05627 H 697.36226 l -9.82463,9.82463 v 16.63096 l -7.89957,7.89956 H 668.9359 Z"
         id="path101"
         clip-path="url(#clipath_lpe_path-effect102)"
         inkscape:path-effect="#path-effect102"
         inkscape:original-d="m 661.52903,443.37094 v 160.74899 l 13.11545,11.5865 h 12.03197 l 4.38812,4.38812 v 17.55252 l 10.40411,10.40411 h 151.83811 l 12.25664,-12.25661 v -25.46889 l 6.68354,-6.68357 h 14.29063 l 10.67121,-10.6712 V 450.37303 l -11.84149,-11.84148 h -14.10635 l -5.68655,-5.68657 v -24.08839 l -8.05627,-8.05627 H 697.36226 l -9.82463,9.82463 v 16.63096 l -7.89957,7.89956 H 668.9359 Z"
         transform="matrix(0.1244175,0,0,0.1244175,20.176933,-40.119343)" /><path
         style="fill:#ffffff;fill-opacity:1;stroke:#000000;stroke-width:0.281856;stroke-opacity:0.0345679"
         d="m 137.31346,11.404766 v 27.780379 l 1.49734,1.497353 h 7.8391 l 1.34762,-1.347621 V 25.000852 l 0.55337,-0.553352 h 0.87722 l 0.50088,0.500886 v 6.878555 l 0.92045,0.920447 h 3.88507 l 0.98993,-0.571527 v -8.034754 l 0.60659,-0.606592 h 0.95892 l 0.5147,0.51469 v 14.854078 l 1.469,1.469022 h 6.36627 l 1.47438,-1.474379 V 11.140529 l -1.23043,-1.230437 h -7.1494 l -0.89709,0.897078 v 2.447275 l -0.66126,0.661263 h -2.52857 l -0.88484,0.88487 v 2.71693 l -0.32237,0.558323 h -0.55438 l -0.35069,-0.607397 v -2.910405 l -0.7495,-0.749504 h -2.56393 l -0.65581,-0.655783 V 10.506351 L 147.613,9.95611 h -8.69807 z"
         id="path103" /><path
         style="fill:#ffffff;fill-opacity:1;stroke:#000000;stroke-width:0.280205;stroke-opacity:0.0345679"
         d="m 173.23172,11.230508 -0.10505,26.829273 2.71252,2.71248 h 25.20256 l 1.49632,-1.49635 v -4.5085 l -1.50121,-1.50121 h -15.58133 l -0.93063,-0.9306 v -2.05141 l 1.04324,-1.04321 h 12.60154 l 1.47484,-1.47483 v -4.907293 l -1.50799,-1.507965 h -12.61094 l -1.18988,-1.189916 v -2.90614 l 1.51205,-0.872996 h 15.61428 l 2.51432,-1.451645 v -3.804765 l -1.37974,-1.3797451 h -27.57856 z"
         id="path104" /><path
         style="fill:#ffffff;fill-opacity:1;stroke:#000000;stroke-width:2.07256;stroke-opacity:0.0345679"
         d="m 65.053494,10.695086 v 28.379129 l 1.662918,1.662918 h 7.751049 l 1.317214,-1.317214 V 28.776207 l 1.446333,-1.44633 h 7.599228 l 1.694676,1.694674 v 10.049664 l 1.613822,1.613821 h 6.795206 l 1.48697,-1.486968 V 11.612861 L 95.2402,9.5678117 h -7.819271 l -1.637815,1.6378133 v 9.215595 l -1.739402,1.739402 H 76.734318 L 74.925491,20.351796 V 11.353792 L 73.563048,9.991349 H 66.69538 Z"
         id="path92" /></g></g></svg>
